<?xml version="1.0" encoding="utf-8"?>
<!-- Generator: Adobe Illustrator 27.6.1, SVG Export Plug-In . SVG Version: 6.00 Build 0)  -->
<svg version="1.1" id="Layer_1" xmlns="http://www.w3.org/2000/svg" xmlns:xlink="http://www.w3.org/1999/xlink" x="0px" y="0px"
	 viewBox="0 0 87 40" style="enable-background:new 0 0 87 40;" xml:space="preserve">
<style type="text/css">
	.st0{fill:#C4C4C4;filter:url(#Adobe_OpacityMaskFilter);}
	.st1{mask:url(#mask0_00000101099983782833491840000003168145985570164152_);}
	
		.st2{fill-rule:evenodd;clip-rule:evenodd;fill:#FFFFFF;filter:url(#Adobe_OpacityMaskFilter_00000016052850602170281800000008140265271793695620_);}
	.st3{mask:url(#mask1_00000120522607637520998700000015237896860519554435_);}
	.st4{fill-rule:evenodd;clip-rule:evenodd;fill:#38A678;}
	
		.st5{fill-rule:evenodd;clip-rule:evenodd;fill:#FFFFFF;filter:url(#Adobe_OpacityMaskFilter_00000026863270575339734080000012202643070530035096_);}
	.st6{mask:url(#mask2_00000158004271823264611860000010739748373576475034_);}
	.st7{fill-rule:evenodd;clip-rule:evenodd;fill:#FEE134;}
	
		.st8{fill-rule:evenodd;clip-rule:evenodd;fill:#FFFFFF;filter:url(#Adobe_OpacityMaskFilter_00000101801350972477476270000013427560057807741859_);}
	.st9{mask:url(#mask3_00000100367793893601238540000008471186780719524227_);}
	.st10{fill-rule:evenodd;clip-rule:evenodd;fill:#EE554D;}
	
		.st11{fill-rule:evenodd;clip-rule:evenodd;fill:#FFFFFF;filter:url(#Adobe_OpacityMaskFilter_00000058555708244397349060000017399778025641982396_);}
	.st12{mask:url(#mask4_00000148634918848790791020000004790169136185828009_);}
	.st13{fill-rule:evenodd;clip-rule:evenodd;}
	
		.st14{fill-rule:evenodd;clip-rule:evenodd;fill:#FFFFFF;filter:url(#Adobe_OpacityMaskFilter_00000045597259562420352510000013872535923074882743_);}
	.st15{mask:url(#mask5_00000082328682138415083880000000394844863234820757_);}
	.st16{fill-rule:evenodd;clip-rule:evenodd;fill:#3593C3;}
</style>
<defs>
	<filter id="Adobe_OpacityMaskFilter" filterUnits="userSpaceOnUse" x="0" y="0" width="86.9" height="40">
		<feColorMatrix  type="matrix" values="1 0 0 0 0  0 1 0 0 0  0 0 1 0 0  0 0 0 1 0"/>
	</filter>
</defs>
<mask maskUnits="userSpaceOnUse" x="0" y="0" width="86.9" height="40" id="mask0_00000101099983782833491840000003168145985570164152_">
	<rect class="st0" width="87" height="40"/>
</mask>
<g class="st1">
	<defs>
		
			<filter id="Adobe_OpacityMaskFilter_00000090281039688737362500000009561352629993475753_" filterUnits="userSpaceOnUse" x="44.6" y="12.6" width="27.4" height="27.4">
			<feColorMatrix  type="matrix" values="1 0 0 0 0  0 1 0 0 0  0 0 1 0 0  0 0 0 1 0"/>
		</filter>
	</defs>
	
		<mask maskUnits="userSpaceOnUse" x="44.6" y="12.6" width="27.4" height="27.4" id="mask1_00000120522607637520998700000015237896860519554435_">
		
			<path style="fill-rule:evenodd;clip-rule:evenodd;fill:#FFFFFF;filter:url(#Adobe_OpacityMaskFilter_00000090281039688737362500000009561352629993475753_);" d="
			M44.6,12.6H72V40H44.6V12.6z"/>
	</mask>
	<g class="st3">
		<path class="st4" d="M69.7,27c-0.4,6-5.3,10.7-11.4,10.7c-6.3,0-11.4-5.1-11.4-11.4c0-5.1,3.3-9.4,7.9-10.9
			c0.1-0.6,0.1-1.1,0.1-1.7c0-0.2,0-0.5,0-0.7c-5.9,1.5-10.3,6.9-10.3,13.3c0,7.6,6.1,13.7,13.7,13.7c7.2,0,13.1-5.6,13.7-12.6
			C71.2,27.3,70.4,27.2,69.7,27z M58.3,14.9c5.7,0,10.5,4.2,11.3,9.7c0.8,0.2,1.5,0.4,2.4,0.5c-0.6-7-6.5-12.5-13.7-12.5
			c-0.4,0-0.8,0-1.2,0.1c0,0.4,0,0.7,0,1.1c0,0.4,0,0.8-0.1,1.2C57.5,14.9,57.9,14.9,58.3,14.9z"/>
	</g>
	<defs>
		
			<filter id="Adobe_OpacityMaskFilter_00000168113453116453138710000007989293463227165875_" filterUnits="userSpaceOnUse" x="14.9" y="12.6" width="27.4" height="27.4">
			<feColorMatrix  type="matrix" values="1 0 0 0 0  0 1 0 0 0  0 0 1 0 0  0 0 0 1 0"/>
		</filter>
	</defs>
	
		<mask maskUnits="userSpaceOnUse" x="14.9" y="12.6" width="27.4" height="27.4" id="mask2_00000158004271823264611860000010739748373576475034_">
		
			<path style="fill-rule:evenodd;clip-rule:evenodd;fill:#FFFFFF;filter:url(#Adobe_OpacityMaskFilter_00000168113453116453138710000007989293463227165875_);" d="
			M14.9,12.6h27.4V40H14.9V12.6z"/>
	</mask>
	<g class="st6">
		<path class="st7" d="M42.2,27.4C41.7,34.4,35.8,40,28.6,40c-7.6,0-13.7-6.1-13.7-13.7c0-6.4,4.4-11.7,10.3-13.3c0,0.2,0,0.5,0,0.7
			c0,0.6,0,1.2-0.1,1.7c-4.6,1.5-7.9,5.8-7.9,10.9c0,6.3,5.1,11.4,11.4,11.4c6.1,0,11-4.7,11.4-10.7C40.7,27.2,41.5,27.3,42.2,27.4z
			 M27.4,14.9c0-0.4,0.1-0.8,0.1-1.2c0-0.4,0-0.7,0-1.1c0.4,0,0.8-0.1,1.2-0.1c7.2,0,13.1,5.5,13.7,12.5c-0.8-0.1-1.6-0.3-2.4-0.5
			c-0.8-5.5-5.6-9.7-11.3-9.7C28.2,14.9,27.8,14.9,27.4,14.9z"/>
	</g>
	<defs>
		
			<filter id="Adobe_OpacityMaskFilter_00000060737096333351628530000001196172709494746240_" filterUnits="userSpaceOnUse" x="59.5" y="0" width="27.4" height="27.4">
			<feColorMatrix  type="matrix" values="1 0 0 0 0  0 1 0 0 0  0 0 1 0 0  0 0 0 1 0"/>
		</filter>
	</defs>
	
		<mask maskUnits="userSpaceOnUse" x="59.5" y="0" width="27.4" height="27.4" id="mask3_00000100367793893601238540000008471186780719524227_">
		
			<path style="fill-rule:evenodd;clip-rule:evenodd;fill:#FFFFFF;filter:url(#Adobe_OpacityMaskFilter_00000060737096333351628530000001196172709494746240_);" d="
			M59.5,0h27.4v27.4H59.5V0z"/>
	</mask>
	<g class="st9">
		<path class="st10" d="M86.9,13.7c0,7.6-6.1,13.7-13.7,13.7c-7.2,0-13.1-5.5-13.7-12.5c0.8,0.1,1.6,0.3,2.4,0.5
			c0.8,5.5,5.6,9.7,11.3,9.7c6.3,0,11.4-5.1,11.4-11.4c0-6.3-5.1-11.4-11.4-11.4c-6.1,0-11,4.7-11.4,10.7c-0.7-0.2-1.5-0.3-2.3-0.4
			C60,5.6,65.9,0,73.1,0C80.7,0,86.9,6.1,86.9,13.7z"/>
	</g>
	<defs>
		
			<filter id="Adobe_OpacityMaskFilter_00000181776582017795782130000012709674074937023395_" filterUnits="userSpaceOnUse" x="29.8" y="0" width="27.4" height="27.4">
			<feColorMatrix  type="matrix" values="1 0 0 0 0  0 1 0 0 0  0 0 1 0 0  0 0 0 1 0"/>
		</filter>
	</defs>
	
		<mask maskUnits="userSpaceOnUse" x="29.8" y="0" width="27.4" height="27.4" id="mask4_00000148634918848790791020000004790169136185828009_">
		
			<path style="fill-rule:evenodd;clip-rule:evenodd;fill:#FFFFFF;filter:url(#Adobe_OpacityMaskFilter_00000181776582017795782130000012709674074937023395_);" d="
			M29.8,0h27.4v27.4H29.8V0z"/>
	</mask>
	<g class="st12">
		<path class="st13" d="M43.4,25.1c-5.7,0-10.5-4.2-11.3-9.7c-0.8-0.2-1.5-0.4-2.4-0.5c0.6,7,6.5,12.5,13.7,12.5
			c0.4,0,0.8,0,1.2-0.1c0-0.4,0-0.7,0-1.1c0-0.4,0-0.8,0.1-1.2C44.2,25.1,43.8,25.1,43.4,25.1z M43.4,0c-7.2,0-13.1,5.6-13.7,12.6
			c0.8,0.1,1.5,0.2,2.3,0.4c0.4-6,5.3-10.7,11.4-10.7c6.3,0,11.4,5.1,11.4,11.4c0,5.1-3.3,9.4-7.9,10.9c-0.1,0.6-0.1,1.1-0.1,1.7
			c0,0.2,0,0.5,0,0.7c5.9-1.5,10.3-6.9,10.3-13.3C57.1,6.1,51,0,43.4,0z"/>
	</g>
	<defs>
		
			<filter id="Adobe_OpacityMaskFilter_00000130634607697349137510000009276245983378902408_" filterUnits="userSpaceOnUse" x="0" y="0" width="27.4" height="27.4">
			<feColorMatrix  type="matrix" values="1 0 0 0 0  0 1 0 0 0  0 0 1 0 0  0 0 0 1 0"/>
		</filter>
	</defs>
	
		<mask maskUnits="userSpaceOnUse" x="0" y="0" width="27.4" height="27.4" id="mask5_00000082328682138415083880000000394844863234820757_">
		
			<path style="fill-rule:evenodd;clip-rule:evenodd;fill:#FFFFFF;filter:url(#Adobe_OpacityMaskFilter_00000130634607697349137510000009276245983378902408_);" d="
			M0,0h27.4v27.4H0V0z"/>
	</mask>
	<g class="st15">
		<path class="st16" d="M27.4,13.7C27.4,6.1,21.3,0,13.7,0C6.1,0,0,6.1,0,13.7c0,7.6,6.1,13.7,13.7,13.7c0.4,0,0.8,0,1.2-0.1
			c0-0.4,0-0.7,0-1.1c0-0.4,0-0.8,0.1-1.2c-0.4,0-0.8,0.1-1.2,0.1C7.4,25.1,2.3,20,2.3,13.7c0-6.3,5.1-11.4,11.4-11.4
			c6.3,0,11.4,5.1,11.4,11.4c0,5.1-3.3,9.4-7.9,10.9c-0.1,0.6-0.1,1.1-0.1,1.7c0,0.2,0,0.5,0,0.7C23.1,25.5,27.4,20.1,27.4,13.7z"/>
	</g>
</g>
</svg>
